<svg xmlns="http://www.w3.org/2000/svg" xmlns:xlink="http://www.w3.org/1999/xlink" width="574" zoomAndPan="magnify" viewBox="0 0 430.5 239.249991" height="319" preserveAspectRatio="xMidYMid meet" version="1.0"><defs><g/><clipPath id="5703d9cd64"><path d="M 180 75 L 237 75 L 237 110 L 180 110 Z M 180 75 " clip-rule="nonzero"/></clipPath><clipPath id="86db56ef9a"><path d="M 208.308594 75.382812 L 236.359375 103.433594 L 208.308594 131.484375 L 180.253906 103.433594 Z M 208.308594 75.382812 " clip-rule="nonzero"/></clipPath><clipPath id="69618ea50f"><path d="M 208.308594 75.382812 L 236.359375 103.433594 L 208.308594 131.484375 L 180.253906 103.433594 Z M 208.308594 75.382812 " clip-rule="nonzero"/></clipPath></defs><g clip-path="url(#5703d9cd64)"><g clip-path="url(#86db56ef9a)"><g clip-path="url(#69618ea50f)"><path fill="#000000" d="M 186.394531 109.574219 L 180.253906 103.433594 L 208.308594 75.382812 L 236.359375 103.433594 L 230.222656 109.574219 L 208.308594 87.660156 Z M 186.394531 109.574219 " fill-opacity="1" fill-rule="nonzero"/></g></g></g><g fill="#000000" fill-opacity="1"><g transform="translate(96.165513, 150.839527)"><g><path d="M 11.558594 0 L 21.660156 0 L 28.042969 -19.550781 L 34.425781 0 L 44.527344 0 L 55.835938 -35.179688 L 45.179688 -35.179688 L 42.71875 -27.339844 L 39.097656 -16.082031 L 32.867188 -35.179688 L 23.21875 -35.179688 L 20.605469 -27.339844 L 17.035156 -16.382812 L 13.46875 -27.339844 L 11.007812 -35.179688 L 0.25 -35.179688 Z M 11.558594 0 "/></g></g></g><g fill="#000000" fill-opacity="1"><g transform="translate(157.766836, 150.839527)"><g><path d="M 3.71875 0 L 13.871094 0 L 13.871094 -10 L 17.691406 -10 L 22.714844 0 L 34.222656 0 L 27.742188 -11.859375 C 31.460938 -13.921875 33.570312 -17.640625 33.570312 -22.566406 C 33.570312 -30.355469 28.292969 -35.179688 19.75 -35.179688 L 3.71875 -35.179688 Z M 13.667969 -18.09375 L 13.667969 -26.886719 L 18.394531 -26.886719 C 21.609375 -26.886719 23.367188 -25.328125 23.367188 -22.515625 C 23.367188 -19.699219 21.609375 -18.09375 18.394531 -18.09375 Z M 13.667969 -18.09375 "/></g></g></g><g fill="#000000" fill-opacity="1"><g transform="translate(199.471234, 150.839527)"><g><path d="M 3.71875 0 L 13.871094 0 L 13.871094 -35.179688 L 3.71875 -35.179688 Z M 3.71875 0 "/></g></g></g><g fill="#000000" fill-opacity="1"><g transform="translate(222.585057, 150.839527)"><g><path d="M 12.113281 0 L 22.214844 0 L 22.214844 -25.78125 L 32.917969 -25.78125 L 32.917969 -35.179688 L 1.40625 -35.179688 L 1.40625 -25.78125 L 12.113281 -25.78125 Z M 12.113281 0 "/></g></g></g><g fill="#000000" fill-opacity="1"><g transform="translate(262.430394, 150.839527)"><g><path d="M 3.71875 0 L 28.242188 0 L 28.242188 -9.398438 L 13.871094 -9.398438 L 13.871094 -35.179688 L 3.71875 -35.179688 Z M 3.71875 0 "/></g></g></g><g fill="#000000" fill-opacity="1"><g transform="translate(297.452239, 150.839527)"><g><path d="M 13.066406 0 L 23.167969 0 L 23.167969 -12.261719 L 35.984375 -35.179688 L 24.476562 -35.179688 L 18.09375 -22.566406 L 15.378906 -27.890625 L 11.660156 -35.179688 L 0.25 -35.179688 L 13.066406 -12.210938 Z M 13.066406 0 "/></g></g></g></svg>