<svg xmlns="http://www.w3.org/2000/svg" xmlns:xlink="http://www.w3.org/1999/xlink" width="574" zoomAndPan="magnify" viewBox="0 0 430.5 237.749993" height="317" preserveAspectRatio="xMidYMid meet" version="1.0"><defs><g/><clipPath id="ae51cd7509"><path d="M 180 75 L 237 75 L 237 110 L 180 110 Z M 180 75 " clip-rule="nonzero"/></clipPath><clipPath id="a5b2f00417"><path d="M 208.839844 75.6875 L 236.945312 103.792969 L 208.839844 131.902344 L 180.730469 103.792969 Z M 208.839844 75.6875 " clip-rule="nonzero"/></clipPath><clipPath id="a5c2d2acc9"><path d="M 208.839844 75.6875 L 236.945312 103.792969 L 208.839844 131.902344 L 180.730469 103.792969 Z M 208.839844 75.6875 " clip-rule="nonzero"/></clipPath></defs><g clip-path="url(#ae51cd7509)"><g clip-path="url(#a5b2f00417)"><g clip-path="url(#a5c2d2acc9)"><path fill="#ffffff" d="M 186.882812 109.945312 L 180.730469 103.792969 L 208.839844 75.6875 L 236.945312 103.792969 L 230.796875 109.945312 L 208.839844 87.988281 Z M 186.882812 109.945312 " fill-opacity="1" fill-rule="nonzero"/></g></g></g><g fill="#ffffff" fill-opacity="1"><g transform="translate(95.930786, 149.649894)"><g><path d="M 11.582031 0 L 21.703125 0 L 28.097656 -19.589844 L 34.492188 0 L 44.613281 0 L 55.945312 -35.25 L 45.269531 -35.25 L 42.800781 -27.394531 L 39.175781 -16.113281 L 32.933594 -35.25 L 23.265625 -35.25 L 20.644531 -27.394531 L 17.070312 -16.414062 L 13.496094 -27.394531 L 11.027344 -35.25 L 0.25 -35.25 Z M 11.582031 0 "/></g></g></g><g fill="#ffffff" fill-opacity="1"><g transform="translate(157.653531, 149.649894)"><g><path d="M 3.726562 0 L 13.898438 0 L 13.898438 -10.019531 L 17.726562 -10.019531 L 22.761719 0 L 34.292969 0 L 27.796875 -11.882812 C 31.523438 -13.949219 33.636719 -17.675781 33.636719 -22.609375 C 33.636719 -30.414062 28.351562 -35.25 19.789062 -35.25 L 3.726562 -35.25 Z M 13.695312 -18.128906 L 13.695312 -26.941406 L 18.429688 -26.941406 C 21.652344 -26.941406 23.414062 -25.378906 23.414062 -22.558594 C 23.414062 -19.738281 21.652344 -18.128906 18.429688 -18.128906 Z M 13.695312 -18.128906 "/></g></g></g><g fill="#ffffff" fill-opacity="1"><g transform="translate(199.440133, 149.649894)"><g><path d="M 3.726562 0 L 13.898438 0 L 13.898438 -35.25 L 3.726562 -35.25 Z M 3.726562 0 "/></g></g></g><g fill="#ffffff" fill-opacity="1"><g transform="translate(222.599515, 149.649894)"><g><path d="M 12.136719 0 L 22.257812 0 L 22.257812 -25.832031 L 32.984375 -25.832031 L 32.984375 -35.25 L 1.410156 -35.25 L 1.410156 -25.832031 L 12.136719 -25.832031 Z M 12.136719 0 "/></g></g></g><g fill="#ffffff" fill-opacity="1"><g transform="translate(262.523391, 149.649894)"><g><path d="M 3.726562 0 L 28.300781 0 L 28.300781 -9.417969 L 13.898438 -9.417969 L 13.898438 -35.25 L 3.726562 -35.25 Z M 3.726562 0 "/></g></g></g><g fill="#ffffff" fill-opacity="1"><g transform="translate(297.614268, 149.649894)"><g><path d="M 13.09375 0 L 23.214844 0 L 23.214844 -12.285156 L 36.054688 -35.25 L 24.523438 -35.25 L 18.128906 -22.609375 L 15.410156 -27.945312 L 11.683594 -35.25 L 0.25 -35.25 L 13.09375 -12.234375 Z M 13.09375 0 "/></g></g></g></svg>