<svg xmlns="http://www.w3.org/2000/svg" xmlns:xlink="http://www.w3.org/1999/xlink" width="500" zoomAndPan="magnify" viewBox="0 0 375 374.999991" height="500" preserveAspectRatio="xMidYMid meet" version="1.0"><defs><g/><clipPath id="fd48b819bc"><path d="M 133 121 L 222 121 L 222 175 L 133 175 Z M 133 121 " clip-rule="nonzero"/></clipPath><clipPath id="69287f0fdd"><path d="M 177.652344 121.125 L 221.671875 165.140625 L 177.652344 209.160156 L 133.636719 165.140625 Z M 177.652344 121.125 " clip-rule="nonzero"/></clipPath><clipPath id="d523e3362c"><path d="M 177.652344 121.125 L 221.671875 165.140625 L 177.652344 209.160156 L 133.636719 165.140625 Z M 177.652344 121.125 " clip-rule="nonzero"/></clipPath></defs><g clip-path="url(#fd48b819bc)"><g clip-path="url(#69287f0fdd)"><g clip-path="url(#d523e3362c)"><path fill="#ffffff" d="M 143.265625 174.773438 L 133.636719 165.140625 L 177.652344 121.125 L 221.671875 165.140625 L 212.039062 174.773438 L 177.652344 140.386719 Z M 143.265625 174.773438 " fill-opacity="1" fill-rule="nonzero"/></g></g></g><g fill="#ffffff" fill-opacity="1"><g transform="translate(12.613304, 235.126127)"><g><path d="M 17.019531 0 L 31.894531 0 L 41.292969 -28.785156 L 50.691406 0 L 65.566406 0 L 82.214844 -51.800781 L 66.527344 -51.800781 L 62.902344 -40.257812 L 57.574219 -23.679688 L 48.398438 -51.800781 L 34.1875 -51.800781 L 30.339844 -40.257812 L 25.085938 -24.125 L 19.832031 -40.257812 L 16.207031 -51.800781 L 0.371094 -51.800781 Z M 17.019531 0 "/></g></g></g><g fill="#ffffff" fill-opacity="1"><g transform="translate(103.329183, 235.126127)"><g><path d="M 5.476562 0 L 20.425781 0 L 20.425781 -14.726562 L 26.050781 -14.726562 L 33.449219 0 L 50.394531 0 L 40.847656 -17.464844 C 46.324219 -20.5 49.433594 -25.976562 49.433594 -33.226562 C 49.433594 -44.699219 41.664062 -51.800781 29.082031 -51.800781 L 5.476562 -51.800781 Z M 20.128906 -26.640625 L 20.128906 -39.589844 L 27.085938 -39.589844 C 31.820312 -39.589844 34.410156 -37.296875 34.410156 -33.152344 C 34.410156 -29.007812 31.820312 -26.640625 27.085938 -26.640625 Z M 20.128906 -26.640625 "/></g></g></g><g fill="#ffffff" fill-opacity="1"><g transform="translate(164.744184, 235.126127)"><g><path d="M 5.476562 0 L 20.425781 0 L 20.425781 -51.800781 L 5.476562 -51.800781 Z M 5.476562 0 "/></g></g></g><g fill="#ffffff" fill-opacity="1"><g transform="translate(198.782092, 235.126127)"><g><path d="M 17.835938 0 L 32.710938 0 L 32.710938 -37.964844 L 48.472656 -37.964844 L 48.472656 -51.800781 L 2.070312 -51.800781 L 2.070312 -37.964844 L 17.835938 -37.964844 Z M 17.835938 0 "/></g></g></g><g fill="#ffffff" fill-opacity="1"><g transform="translate(257.45938, 235.126127)"><g><path d="M 5.476562 0 L 41.589844 0 L 41.589844 -13.839844 L 20.425781 -13.839844 L 20.425781 -51.800781 L 5.476562 -51.800781 Z M 5.476562 0 "/></g></g></g><g fill="#ffffff" fill-opacity="1"><g transform="translate(309.033435, 235.126127)"><g><path d="M 19.242188 0 L 34.113281 0 L 34.113281 -18.054688 L 52.984375 -51.800781 L 36.039062 -51.800781 L 26.640625 -33.226562 L 22.644531 -41.070312 L 17.167969 -51.800781 L 0.371094 -51.800781 L 19.242188 -17.984375 Z M 19.242188 0 "/></g></g></g></svg>